<svg viewBox="0 0 96 24" fill="none" xmlns="http://www.w3.org/2000/svg">
    <path d="M24.9961 8.39453H34.6955V10.2598H30.965V20.3322H28.7266V10.2598H24.9961V8.39453ZM34.1359 11.5655H36.0012V13.2442C36.0012 13.0577 36.1877 12.8712 36.3742 12.4981C36.5608 12.1251 36.7473 12.1251 36.9338 11.9385C37.1203 11.752 37.4934 11.5655 37.6799 11.5655C37.8664 11.379 38.2395 11.379 38.6125 11.379C38.7991 11.379 38.9856 11.379 38.9856 11.379H39.1721V13.2442C38.9856 13.2442 38.9856 13.2442 38.7991 13.2442C38.6125 13.2442 38.6125 13.2442 38.426 13.2442C38.053 13.2442 37.8664 13.2442 37.4934 13.4308C37.1203 13.6173 36.9338 13.8038 36.7473 13.9903C36.5608 14.1769 36.3742 14.5499 36.1877 14.923C36.0012 15.296 36.0012 15.6691 36.0012 16.2287V20.3322H34.1359V11.5655ZM47.9389 20.3322H46.0736V19.2131C45.8871 19.5861 45.514 19.9592 44.9545 20.3322C44.5814 20.5188 44.0218 20.7053 43.4622 20.7053C42.3431 20.7053 41.597 20.5188 41.0374 19.7727C40.4778 19.0266 40.2913 18.2804 40.2913 17.1613V11.752H42.1566V16.9748C42.1566 17.7209 42.3431 18.2804 42.5296 18.6535C42.9027 19.0266 43.2757 19.2131 43.8353 19.2131C44.2083 19.2131 44.5814 19.2131 44.7679 19.0266C44.9545 18.84 45.3275 18.6535 45.3275 18.467C45.514 18.2804 45.7006 18.0939 45.7006 17.7209C45.7006 17.3478 45.8871 17.1613 45.8871 16.7882V11.752H47.7524V20.3322H47.9389ZM51.1098 17.5343C51.1098 18.0939 51.2964 18.467 51.6694 18.6535C52.0425 18.84 52.4155 19.0266 52.9751 19.0266C53.1616 19.0266 53.3482 19.0266 53.5347 19.0266C53.7212 19.0266 53.9077 19.0266 54.0943 18.84C54.2808 18.84 54.4673 18.6535 54.6539 18.467C54.8404 18.2804 54.8404 18.0939 54.8404 17.9074C54.8404 17.7209 54.6539 17.5343 54.6539 17.3478C54.4673 17.1613 54.2808 17.1613 54.0943 16.9748C53.9077 16.9748 53.5347 16.7882 53.1616 16.7882C52.7886 16.7882 52.4155 16.6017 52.229 16.6017C51.8559 16.6017 51.4829 16.4152 51.2964 16.2287C51.1098 16.0421 50.7368 16.0421 50.3637 15.8556C50.1772 15.6691 49.8041 15.4825 49.8041 15.1095C49.6176 14.7364 49.6176 14.3634 49.6176 13.9903C49.6176 13.4308 49.8042 13.0577 49.9907 12.8712C50.1772 12.6846 50.5503 12.3116 50.9233 12.1251C51.2964 11.9385 51.6694 11.752 52.0425 11.752C52.4155 11.752 52.9751 11.5655 53.3482 11.5655C53.7212 11.5655 54.2808 11.5655 54.6539 11.752C55.0269 11.752 55.4 11.9385 55.773 12.1251C56.1461 12.3116 56.3326 12.6846 56.5191 12.8712C56.7056 13.2442 56.8922 13.6173 56.8922 14.1769H54.8404C54.8404 13.8038 54.4673 13.4308 54.2808 13.2442C53.7212 13.0577 53.3482 12.8712 52.9751 12.8712C52.7886 12.8712 52.6021 12.8712 52.4155 12.8712C52.229 12.8712 52.0425 12.8712 51.8559 13.0577C51.6694 13.0577 51.4829 13.2442 51.4829 13.2442C51.2964 13.4308 51.2964 13.4308 51.2964 13.6173C51.2964 13.8038 51.2964 13.9903 51.4829 14.1769C51.6694 14.3634 51.8559 14.3634 52.0425 14.5499C52.229 14.5499 52.6021 14.7364 52.9751 14.7364C53.3482 14.7364 53.7212 14.923 54.0943 14.923C54.4673 14.923 54.8404 15.1095 55.0269 15.296C55.4 15.4825 55.5865 15.4825 55.9595 15.6691C56.3326 15.8556 56.5191 16.0421 56.5191 16.4152C56.7056 16.7882 56.7056 16.9748 56.7056 17.5343C56.7056 18.0939 56.5191 18.467 56.3326 18.84C56.1461 19.2131 55.773 19.3996 55.4 19.7727C55.2134 20.1457 54.8404 20.3322 54.4673 20.3322C54.0943 20.3322 53.5347 20.5188 53.1616 20.5188C52.6021 20.5188 52.0425 20.5188 51.6694 20.3322C51.2964 20.1457 50.7368 19.9592 50.5503 19.7727C50.1772 19.5861 49.9907 19.2131 49.8041 18.84C49.4311 18.467 49.2446 18.0939 49.2446 17.5343H51.1098ZM57.4518 11.5655H58.944V9.14064H60.8092V11.752H62.488V13.2442H60.8092V17.9074C60.8092 18.0939 60.8092 18.2804 60.8092 18.467C60.8092 18.6535 60.8092 18.6535 60.9958 18.84C61.1823 19.0266 61.1823 19.0266 61.1823 19.0266C61.3688 19.0266 61.5553 19.0266 61.7419 19.0266C61.9284 19.0266 61.9284 19.0266 62.1149 19.0266C62.3014 19.0266 62.3014 19.0266 62.488 19.0266V20.3322C62.3014 20.3322 62.1149 20.3322 61.9284 20.3322C61.7419 20.3322 61.5553 20.3322 61.3688 20.3322C60.8092 20.3322 60.4362 20.3322 60.2497 20.1457C59.8766 20.1457 59.6901 19.9592 59.5035 19.7727C59.317 19.5861 59.1305 19.3996 59.1305 19.0266C59.1305 18.84 58.944 18.467 58.944 18.0939V13.0577H57.4518V11.5655ZM63.7937 11.5655H65.6589V12.8712C65.8455 12.3116 66.2185 11.9385 66.7781 11.752C67.3377 11.5655 67.7107 11.379 68.2703 11.379C69.0164 11.379 69.576 11.5655 70.1356 11.752C70.6951 11.9385 71.0682 12.3116 71.4413 12.6846C71.8143 13.0577 72.0008 13.6173 72.1874 14.1769C72.3739 14.7364 72.3739 15.296 72.3739 16.0421C72.3739 16.6017 72.3739 17.1613 72.1874 17.7209C72.0008 18.2804 71.8143 18.6535 71.4413 19.2131C71.0682 19.5861 70.6951 19.9592 70.3221 20.1457C69.7625 20.3322 69.3895 20.5188 68.6434 20.5188C68.4568 20.5188 68.0838 20.5188 67.8972 20.5188C67.7107 20.5188 67.3377 20.3322 67.1511 20.3322C66.9646 20.1457 66.5916 20.1457 66.405 19.9592C66.2185 19.7727 66.032 19.5861 65.8455 19.3996V23.6897H63.9802V11.5655H63.7937ZM70.5086 16.0421C70.5086 15.6691 70.5086 15.296 70.3221 14.923C70.1356 14.5499 70.1356 14.1769 69.949 13.9903C69.7625 13.8038 69.576 13.4308 69.2029 13.2442C68.8299 13.0577 68.6434 13.0577 68.0838 13.0577C67.3377 13.0577 66.5916 13.2442 66.2185 13.8038C65.8455 14.3634 65.6589 15.1095 65.6589 16.0421C65.6589 16.4152 65.6589 16.9748 65.8455 17.1613C66.032 17.5343 66.032 17.9074 66.405 18.0939C66.5916 18.2804 66.7781 18.6535 67.1511 18.6535C67.5242 18.84 67.7107 18.84 68.0838 18.84C68.4568 18.84 68.8299 18.84 69.2029 18.6535C69.576 18.467 69.7625 18.2804 69.949 17.9074C70.1356 17.5343 70.3221 17.3478 70.3221 16.9748C70.3221 16.7882 70.5086 16.4152 70.5086 16.0421ZM73.8661 8.39453H75.7314V10.2598H73.8661V8.39453ZM73.8661 11.5655H75.7314V20.3322H73.8661V11.5655ZM77.4101 8.39453H79.2754V20.3322H77.4101V8.39453ZM85.0577 20.5188C84.3116 20.5188 83.752 20.3322 83.1924 20.1457C82.6329 19.9592 82.2598 19.5861 81.8868 19.2131C81.5137 18.84 81.1406 18.2804 80.9541 17.7209C80.7676 17.1613 80.5811 16.6017 80.5811 15.8556C80.5811 15.1095 80.7676 14.5499 80.9541 13.9903C81.1406 13.4308 81.5137 12.8712 81.8868 12.4981C82.2598 12.1251 82.6329 11.752 83.1924 11.5655C83.752 11.379 84.3116 11.1924 85.0577 11.1924C85.8038 11.1924 86.3634 11.379 86.923 11.5655C87.4826 11.752 87.8556 12.1251 88.2287 12.4981C88.6017 12.8712 88.9748 13.4308 89.1613 13.9903C89.3478 14.5499 89.5343 15.1095 89.5343 15.8556C89.5343 16.6017 89.3478 17.1613 89.1613 17.7209C88.9748 18.2804 88.6017 18.84 88.2287 19.2131C87.8556 19.5861 87.4826 19.9592 86.923 20.1457C86.3634 20.3322 85.8038 20.5188 85.0577 20.5188ZM85.0577 19.0266C85.4308 19.0266 85.8038 19.0266 86.1769 18.84C86.5499 18.6535 86.7365 18.467 86.923 18.0939C87.1095 17.7209 87.296 17.5343 87.296 17.1613C87.296 16.7882 87.4826 16.4152 87.4826 16.0421C87.4826 15.6691 87.4826 15.296 87.296 14.923C87.296 14.5499 87.1095 14.1769 86.923 13.9903C86.7365 13.8038 86.5499 13.4308 86.1769 13.2442C85.8038 13.0577 85.4308 13.0577 85.0577 13.0577C84.6847 13.0577 84.3116 13.0577 83.9385 13.2442C83.5655 13.4308 83.379 13.6173 83.1924 13.9903C83.0059 14.3634 82.8194 14.5499 82.8194 14.923C82.8194 15.296 82.6329 15.6691 82.6329 16.0421C82.6329 16.4152 82.6329 16.7882 82.8194 17.1613C82.8194 17.5343 83.0059 17.9074 83.1924 18.0939C83.379 18.467 83.5655 18.6535 83.9385 18.84C84.3116 18.84 84.6847 19.0266 85.0577 19.0266ZM90.0939 11.5655H91.5861V9.14064H93.4514V11.752H95.1301V13.2442H93.4514V17.9074C93.4514 18.0939 93.4514 18.2804 93.4514 18.467C93.4514 18.6535 93.4514 18.6535 93.6379 18.84C93.8245 19.0266 93.8245 19.0266 93.8245 19.0266C94.011 19.0266 94.1975 19.0266 94.384 19.0266C94.5706 19.0266 94.5706 19.0266 94.7571 19.0266C94.9436 19.0266 94.9436 19.0266 95.1301 19.0266V20.3322C94.9436 20.3322 94.7571 20.3322 94.5706 20.3322C94.384 20.3322 94.1975 20.3322 94.011 20.3322C93.4514 20.3322 93.0784 20.3322 92.8918 20.1457C92.5188 20.1457 92.3323 19.9592 92.1457 19.7727C91.9592 19.5861 91.7727 19.3996 91.7727 19.0266C91.7727 18.84 91.5861 18.467 91.5861 18.0939V13.0577H90.0939V11.5655Z" fill="white"/>
    <path d="M22.7563 8.3937H13.9895L11.3781 0L8.58023 8.3937H0L6.90149 13.4299L4.29011 21.8236L11.3781 16.6009L18.2796 21.8236L15.6682 13.4299L22.7563 8.3937Z" fill="#00B67A"/>
    <path d="M16.2325 15.295L15.6729 13.4297L11.3828 16.6006L16.2325 15.295Z" fill="#005128"/>
</svg>
