<?xml version="1.0" encoding="UTF-8"?>
<svg id="Layer_1" data-name="Layer 1" xmlns="http://www.w3.org/2000/svg" xmlns:xlink="http://www.w3.org/1999/xlink" viewBox="0 0 300 107">
  <defs>
    <linearGradient id="linear-gradient" x1="298.01" y1="-198.84" x2="448.38" y2="-198.84" gradientTransform="translate(-231 -168.27) scale(1 -1)" gradientUnits="userSpaceOnUse">
      <stop offset="0" stop-color="#d3d800"/>
      <stop offset=".5" stop-color="#95c11f"/>
      <stop offset="1" stop-color="#3aaa35"/>
    </linearGradient>
  </defs>
  <path id="marque" d="M211.28,45.86l6.11,6.11c-5.88,5.89-13.59,8.83-21.29,8.83s-15.41-2.94-21.29-8.83c-2.62-2.62-4.62-5.62-6.07-8.81l-4.74-8.21-10.11-17.55-4.92-8.54,4.91-8.54,4.92,8.54,4.92,8.54,3.26,5.65c1.3-5.02,3.89-9.78,7.82-13.72,5.88-5.89,13.59-8.83,21.29-8.83s15.41,2.94,21.29,8.83l-6.11,6.11c-4.06-4.06-9.45-6.3-15.18-6.3s-11.12,2.24-15.18,6.3c-6.71,6.71-8.03,16.79-3.99,24.83l1.33,2.3c.77,1.15,1.65,2.24,2.66,3.26,4.06,4.06,9.45,6.3,15.18,6.3s11.12-2.24,15.18-6.3ZM158.52,43.03l-4.92-8.54-4.92-8.54-4.92-8.54-4.92-8.54-4.92-8.54-4.92,8.54,4.92,8.54,4.92,8.54,4.92,8.54,10.11,17.55,4.92,8.54h9.85l-4.92-8.54-5.19-9.01ZM144.02,52.04l4.92,8.54h-9.85l-4.92-8.54-7.96-13.81c-1.3,5-3.89,9.73-7.8,13.64-5.88,5.89-13.59,8.83-21.29,8.83s-15.41-2.94-21.29-8.83c-11.76-11.78-11.76-30.85,0-42.63C81.7,3.35,89.4.4,97.11.4s15.41,2.94,21.29,8.83c2.79,2.8,4.9,6.01,6.36,9.42l4.2,7.3,4.92,8.54,4.92,8.54,5.19,9.01h.01ZM112.29,15.35c-4.06-4.06-9.45-6.3-15.18-6.3s-11.13,2.24-15.18,6.3c-8.37,8.38-8.37,22.01,0,30.39,4.06,4.06,9.45,6.3,15.18,6.3s11.13-2.24,15.18-6.3c8.37-8.38,8.37-22.01,0-30.39Z" style="fill: url(#linear-gradient); fill-rule: evenodd; stroke-width: 0px;"/>
  <g id="text">
    <path d="M0,92.76c0-1.89.33-3.65,1.01-5.3.68-1.65,1.61-3.08,2.81-4.28,1.2-1.21,2.61-2.16,4.23-2.85,1.62-.69,3.39-1.04,5.27-1.04s3.65.35,5.27,1.04c1.62.69,3.05,1.64,4.25,2.85,1.2,1.21,2.13,2.64,2.81,4.28.68,1.65,1.01,3.41,1.01,5.3s-.33,3.74-1.01,5.44c-.68,1.68-1.61,3.14-2.81,4.4-1.2,1.24-2.61,2.22-4.25,2.94-1.64.72-3.39,1.08-5.27,1.08s-3.65-.36-5.27-1.08c-1.64-.72-3.05-1.69-4.23-2.94-1.2-1.24-2.13-2.7-2.81-4.4-.68-1.68-1.01-3.49-1.01-5.44ZM1.69,92.76c0,1.75.29,3.36.89,4.86.6,1.51,1.4,2.81,2.44,3.92,1.04,1.11,2.26,1.99,3.69,2.61,1.44.63,2.98.95,4.63.95s3.21-.32,4.63-.95c1.44-.63,2.66-1.5,3.69-2.61,1.02-1.11,1.84-2.41,2.44-3.92.6-1.51.89-3.12.89-4.86s-.29-3.26-.89-4.73c-.6-1.47-1.4-2.73-2.44-3.8-1.02-1.07-2.26-1.91-3.69-2.52-1.44-.6-2.98-.91-4.63-.91s-3.21.31-4.63.91c-1.44.61-2.66,1.44-3.69,2.52-1.02,1.08-1.84,2.34-2.44,3.8-.6,1.45-.89,3.04-.89,4.73Z" style="fill: #fff; stroke-width: 0px;"/>
    <path d="M40.71,80.36c.05-.4.27-.6.64-.6h.45c.35,0,.6.16.76.49l7.47,16.11c.15.33.31.67.45,1.01.15.35.29.67.41.95.12.35.27.69.41,1.01h.08c.12-.33.27-.67.41-1.01.12-.28.27-.59.41-.95.15-.35.31-.69.45-1.01l7.47-16.11c.15-.33.4-.49.76-.49h.45c.37,0,.59.2.64.6l2.04,25.11c0,.45-.21.68-.64.68h-.33c-.37,0-.59-.2-.64-.6l-1.58-19.53c-.05-.33-.08-.69-.09-1.09-.01-.4-.01-.77-.01-1.13v-1.28h-.08c-.15.43-.31.85-.45,1.28-.12.35-.27.73-.44,1.13-.16.4-.32.77-.47,1.09l-6.85,14.56c-.15.33-.4.49-.76.49h-.6c-.35,0-.6-.16-.76-.49l-6.81-14.56c-.15-.31-.31-.67-.47-1.08-.16-.41-.31-.81-.44-1.19-.15-.45-.32-.89-.49-1.32h-.08v1.32c0,.37,0,.77-.04,1.17-.03.4-.05.77-.08,1.09l-1.58,19.53c-.05.4-.27.6-.64.6h-.33c-.43,0-.64-.23-.64-.68l2.04-25.11h-.03Z" style="fill: #fff; stroke-width: 0px;"/>
    <path d="M76.03,92.76c0-1.9.32-3.69.96-5.34s1.54-3.08,2.69-4.28c1.16-1.21,2.54-2.14,4.14-2.82,1.61-.68,3.37-1.01,5.27-1.01,1.21,0,2.3.11,3.3.31,1,.21,1.86.47,2.6.77.75.31,1.37.63,1.89.95.52.32.9.6,1.18.83.28.25.31.56.08.91l-.19.23c-.28.31-.57.33-.9.08-.28-.2-.65-.44-1.13-.73-.48-.29-1.05-.57-1.72-.85-.67-.28-1.42-.51-2.28-.69-.85-.19-1.78-.28-2.78-.28-1.68,0-3.22.31-4.62.91-1.4.61-2.6,1.44-3.59,2.49-1,1.07-1.78,2.32-2.36,3.78-.56,1.47-.85,3.05-.85,4.77s.28,3.33.83,4.82c.55,1.49,1.33,2.81,2.36,3.92,1.01,1.11,2.24,1.99,3.66,2.62,1.42.64,2.98.96,4.68.96,1.1,0,2.12-.12,3.03-.36.92-.24,1.73-.52,2.45-.85.72-.33,1.33-.67,1.82-1.04.51-.36.89-.67,1.17-.89.31-.28.6-.27.9.04l.15.19c.28.31.27.6-.04.91-.28.25-.69.57-1.24.99-.56.4-1.22.79-2.01,1.16s-1.7.69-2.75.96c-1.04.27-2.21.4-3.49.4-1.98,0-3.79-.36-5.4-1.09-1.62-.73-3.01-1.72-4.17-2.96s-2.05-2.7-2.69-4.4c-.64-1.68-.96-3.48-.96-5.4v.03Z" style="fill: #fff; stroke-width: 0px;"/>
    <path d="M127.37,92.95c0-1.9.33-3.69,1-5.36.67-1.67,1.58-3.1,2.77-4.34,1.18-1.23,2.57-2.2,4.18-2.9,1.61-.71,3.34-1.05,5.2-1.05,1.16,0,2.21.09,3.14.28.95.19,1.77.41,2.5.68.73.27,1.34.55,1.86.84.52.29.9.53,1.18.73.35.28.37.57.08.91l-.19.23c-.23.35-.53.4-.9.15-.28-.17-.65-.4-1.13-.67-.48-.27-1.04-.52-1.69-.77-.65-.25-1.38-.45-2.21-.63-.81-.16-1.7-.24-2.66-.24-1.66,0-3.19.31-4.59.93-1.4.63-2.62,1.48-3.63,2.57-1.01,1.09-1.81,2.38-2.37,3.86-.56,1.48-.85,3.08-.85,4.78s.28,3.32.82,4.81c.55,1.49,1.33,2.77,2.33,3.86,1,1.08,2.2,1.93,3.57,2.56,1.37.61,2.87.93,4.5.93,1.44,0,2.7-.23,3.81-.67,1.1-.44,2.05-.94,2.82-1.49.9-.65,1.7-1.39,2.41-2.2v-5.12h-4.07c-.43,0-.64-.21-.64-.64v-.23c0-.43.21-.64.64-.64h5.04c.43,0,.64.21.64.64v10.75c0,.43-.21.64-.64.64h-.33c-.43,0-.64-.21-.64-.64v-2.45c0-.12,0-.24.04-.33h-.08c-.65.73-1.42,1.39-2.3,1.96-.76.51-1.69.94-2.82,1.35-1.13.39-2.42.59-3.89.59-1.84,0-3.54-.35-5.12-1.05-1.58-.71-2.96-1.67-4.1-2.9-1.16-1.23-2.06-2.68-2.71-4.34-.65-1.67-.99-3.44-.99-5.36l.03-.03Z" style="fill: #fff; stroke-width: 0px;"/>
    <path d="M164.51,80.4c0-.43.21-.64.64-.64h.33c.43,0,.64.21.64.64v24.25h11.94c.43,0,.64.21.64.64v.23c0,.43-.21.64-.64.64h-12.92c-.43,0-.64-.21-.64-.64v-25.11h.01Z" style="fill: #fff; stroke-width: 0px;"/>
    <path d="M186.58,92.76c0-1.89.33-3.65,1.01-5.3s1.61-3.08,2.81-4.28c1.2-1.21,2.61-2.16,4.23-2.85,1.62-.69,3.39-1.04,5.27-1.04s3.65.35,5.27,1.04c1.62.69,3.05,1.64,4.24,2.85,1.2,1.21,2.13,2.64,2.81,4.28.68,1.65,1.01,3.41,1.01,5.3s-.33,3.74-1.01,5.44c-.68,1.68-1.61,3.14-2.81,4.4-1.2,1.24-2.61,2.22-4.24,2.94-1.64.72-3.39,1.08-5.27,1.08s-3.65-.36-5.27-1.08c-1.64-.72-3.05-1.69-4.23-2.94-1.2-1.24-2.13-2.7-2.81-4.4-.68-1.68-1.01-3.49-1.01-5.44ZM188.27,92.76c0,1.75.29,3.36.89,4.86.6,1.51,1.4,2.81,2.43,3.92,1.04,1.11,2.26,1.99,3.69,2.61,1.44.63,2.98.95,4.63.95s3.21-.32,4.63-.95c1.44-.63,2.66-1.5,3.69-2.61,1.02-1.11,1.84-2.41,2.43-3.92.6-1.51.89-3.12.89-4.86s-.29-3.26-.89-4.73c-.6-1.47-1.4-2.73-2.43-3.8-1.03-1.07-2.26-1.91-3.69-2.52-1.44-.6-2.98-.91-4.63-.91s-3.21.31-4.63.91c-1.44.61-2.66,1.44-3.69,2.52-1.02,1.08-1.84,2.34-2.43,3.8-.6,1.45-.89,3.04-.89,4.73Z" style="fill: #fff; stroke-width: 0px;"/>
    <path d="M226.35,80.4c0-.43.21-.64.64-.64h8.21c.96,0,1.84.16,2.66.47.83.31,1.52.76,2.12,1.32.59.56,1.05,1.25,1.4,2.08.35.83.51,1.73.51,2.73,0,1.44-.32,2.62-.94,3.58-.63.96-1.45,1.68-2.49,2.18v.08c1.3.35,2.38,1.12,3.22,2.32.84,1.2,1.26,2.65,1.26,4.36,0,1.11-.19,2.11-.55,3-.36.89-.88,1.67-1.54,2.31-.66.64-1.45,1.13-2.34,1.46-.89.33-1.86.51-2.91.51h-8.6c-.43,0-.64-.21-.64-.64v-25.11ZM235.18,91.53c1.48,0,2.69-.47,3.62-1.4.93-.93,1.4-2.18,1.4-3.77s-.45-2.8-1.36-3.72c-.9-.92-2.13-1.37-3.69-1.37h-7.16v10.26h7.2-.01ZM235.44,104.65c1.78,0,3.19-.51,4.23-1.53,1.04-1.01,1.56-2.44,1.56-4.24s-.54-3.24-1.64-4.28c-1.09-1.04-2.49-1.56-4.21-1.56h-7.43v11.62h7.48Z" style="fill: #fff; stroke-width: 0px;"/>
    <path d="M262.48,80.28c.11-.35.33-.53.72-.53h.68c.37,0,.61.17.72.53l9.42,25.11c.17.51,0,.76-.53.76h-.41c-.37,0-.61-.16-.72-.49l-3.23-8.63h-11.19l-3.21,8.59c-.11.35-.33.53-.72.53h-.41c-.53,0-.71-.25-.53-.76l9.42-25.11ZM268.55,95.52l-3.99-10.71c-.12-.28-.24-.6-.33-.96-.09-.36-.2-.71-.31-1.04-.11-.37-.21-.77-.33-1.17h-.08c-.12.4-.24.79-.33,1.17-.11.33-.21.67-.32,1.04-.11.37-.23.68-.32.96l-4.03,10.71h10.06-.01Z" style="fill: #fff; stroke-width: 0px;"/>
    <path d="M285.8,80.4c0-.43.21-.64.64-.64h.33c.43,0,.64.21.64.64v24.25h11.94c.43,0,.64.21.64.64v.23c0,.43-.21.64-.64.64h-12.92c-.43,0-.64-.21-.64-.64v-25.11h.01Z" style="fill: #fff; stroke-width: 0px;"/>
  </g>
</svg>